# xmcd
#
# Track frame offsets:
#	150
#	16550
#	42400
#	57520
#
# Disc length: 989 seconds
#
# Revision: 1
# Processed by: cddbd v1.4PL0 Copyright (c) Steve Scherf et al.
# Submitted via: audiograbber 1.80
#
DISCID=2903db04
DTITLE=Grand Drive - Wheels EP
DYEAR=1900
DGENRE=
TTITLE0=Wheel - radio edit
TTITLE1=Holding on
TTITLE2=A Train arrives
TTITLE3=One last smile
EXTD=
EXTT0=
EXTT1=
EXTT2=
EXTT3=
PLAYORDER=
